# AST/ASF file generated using VICON BodyLanguage
# -----------------------------------------------
:version 1.10
:name VICON
:units
  mass 1.0
  length 0.45
  angle deg
:documentation
   .ast/.asf automatically generated from VICON data using
   VICON BodyBuilder and BodyLanguage model FoxedUp or BRILLIANT.MOD
:root
   order TX TY TZ RX RY RZ
   axis XYZ
   position 0 0 0  
   orientation 0 0 0 
:bonedata
  begin
     id 1 
     name lhipjoint
     direction 0.61886 -0.69539 0.365302 
     length 2.20474 
     axis 0 0 0  XYZ
  end
  begin
     id 2 
     name lfemur
     direction 0.34202 -0.939693 0  
     length 6.65149  
     axis 0 0 20  XYZ
    dof rx ry rz
    limits (-160.0 20.0)
           (-70.0 70.0)
           (-60.0 70.0)
  end
  begin
     id 3 
     name ltibia
     direction 0.34202 -0.939693 0   
     length 6.35814   
     axis 0 0 20   XYZ
    dof rx
    limits (-10.0 170.0)
  end
  begin
     id 4 
     name lfoot
     direction 0.101224 -0.278109 0.955201   
     length 2.18766   
     axis -90 7.62852e-016 20   XYZ
    dof rx rz
    limits (-45.0 90.0)
           (-70.0 20.0)
  end
  begin
     id 5 
     name ltoes
     direction 1.53524e-011 -4.21877e-011 1   
     length 1.09206   
     axis -90 7.62852e-016 20   XYZ
    dof rx
    limits (-90.0 20.0)
  end
  begin
     id 6 
     name rhipjoint
     direction -0.600207 -0.708087 0.371972   
     length 2.1652  
     axis 0 0 0  XYZ 
  end
  begin
     id 7 
     name rfemur
     direction -0.34202 -0.939693 0   
     length 6.54691   
     axis 0 0 -20   XYZ
    dof rx ry rz
    limits (-160.0 20.0)
           (-70.0 70.0)
           (-70.0 60.0)
  end
  begin
     id 8 
     name rtibia
     direction -0.34202 -0.939693 0   
     length 6.37474   
     axis 0 0 -20   XYZ
    dof rx
    limits (-10.0 170.0)
 end
 begin
     id 9 
     name rfoot
     direction -0.111266 -0.3057 0.945604   
     length 2.00903  
     axis -90 -7.62852e-016 -20   XYZ
    dof rx rz
    limits (-45.0 90.0)
           (-20.0 70.0)
  end
  begin
     id 10 
     name rtoes
     direction -1.5362e-011 -4.21913e-011 1   
     length 1.00221   
     axis -90 -7.62852e-016 -20   XYZ
    dof rx
    limits (-90.0 20.0)
  end
  begin
     id 11 
     name lowerback
     direction -0.0224561 0.999731 -0.00577314   
     length 2.10409   
     axis 0 0 0   XYZ
    dof rx ry rz
    limits (-20.0 45.0)
           (-30.0 30.0)
           (-30.0 30.0)
  end
  begin
     id 12 
     name upperback
     direction 0.0213126 0.999185 -0.0342817   
     length 2.09783   
     axis 0 0 0   XYZ
    dof rx ry rz
    limits (-20.0 45.0)
           (-30.0 30.0)
           (-30.0 30.0)
  end
  begin
     id 13 
     name thorax
     direction 0.0312356 0.999036 -0.0308451   
     length 2.09788   
     axis 0 0 0   XYZ
    dof rx ry rz
    limits (-20.0 45.0)
           (-30.0 30.0)
           (-30.0 30.0)
  end
  begin
     id 14 
     name lowerneck
     direction -0.0114419 0.996481 0.0830329   
     length 1.38575   
     axis 0 0 0   XYZ
    dof rx ry rz
    limits (-20.0 45.0)
           (-30.0 30.0)
           (-30.0 30.0)
  end
  begin
     id 15 
     name upperneck
     direction -0.0075675 0.996187 -0.0869092   
     length 1.39401   
     axis 0 0 0   XYZ
    dof rx ry rz
    limits (-20.0 45.0)
           (-30.0 30.0)
           (-30.0 30.0)
  end
  begin
     id 16
     name head
     direction -0.00222073 0.999264 -0.0382974  
     length 1.3964  
     axis 0 0 0   XYZ
    dof rx ry rz
    limits (-20.0 45.0)
           (-30.0 30.0)
           (-30.0 30.0)
  end
  begin
     id 17 
     name lclavicle
     direction 0.965962 0.222138 0.132556  
     length 2.81514  
     axis 0 0 0   XYZ
    dof ry rz
    limits (-20.0 10.0)
           (0.0 20.0)
  end
  begin
     id 18 
     name lhumerus
     direction 1 -4.48972e-011 7.03471e-018   
     length 4.47366   
     axis 180 -30 -90   XYZ
    dof rx ry rz
    limits (-60.0 90.0)
           (-90.0 90.0)
           (-90.0 90.0)
  end
  begin
     id 19
     name lradius
     direction 1 -4.48951e-011 -6.22192e-028   
     length 3.19948   
     axis 180 -30 -90   XYZ
    dof rx
    limits (-10.0 170.0)
  end
  begin
     id 20
     name lwrist
     direction 1 -4.48967e-011 -1.24264e-027   
     length 1.59974   
     axis 1.40095e-015 90 90   XYZ
    dof ry
    limits (-180.0 0.0)
 end
  begin
     id 21 
     name lhand
     direction 1 -4.4897e-011 -2.48528e-027   
     length 0.492667   
     axis 1.58582e-015 90 90   XYZ
    dof rx rz
    limits (-90.0 90.0)
           (-45.0 45.0)
  end
  begin
     id 22 
     name lfingers
     direction 1 -4.48996e-011 -4.97056e-027   
     length 0.397201   
     axis 3.17164e-015 90 90   XYZ
    dof rx
    limits (0.0 90.0)
  end
  begin
     id 23
     name lthumb
     direction 0.707107 -6.34981e-011 0.707107   
     length 0.570303   
     axis -90 45 2.85299e-015   XYZ
    dof rx rz
    limits (-45.0 45.0)
           (-45.0 45.0)
  end
  begin
     id 24 
     name rclavicle
     direction -0.961164 0.229034 0.153972   
     length 3.09348  
     axis 0 0 0   XYZ 
    dof ry rz
    limits (-10.0 20.0)
           (-20.0 0.0)
  end
  begin
     id 25 
     name rhumerus
     direction -1 -4.48971e-011 -9.06263e-028  
     length 4.3269   
     axis 180 30 90   XYZ
    dof rx ry rz
    limits (-90.0 60.0)
           (-90.0 90.0)
           (-90.0 90.0)
  end
  begin
     id 26 
     name rradius
     direction -1 -4.48953e-011 1.44659e-027   
     length 3.1896   
     axis 180 30 90   XYZ
    dof rx
    limits (-10.0 170.0)
  end
  begin
     id 27 
     name rwrist
     direction -1 -4.48988e-011 -1.24264e-027   
     length 1.5948   
     axis 1.40095e-015 -90 -90   XYZ
    dof ry
    limits (-180.0 0.0)
  end
  begin
     id 28
     name rhand
     direction -1 -4.49033e-011 -2.48528e-027   
     length 0.464496   
     axis 1.58582e-015 -90 -90   XYZ
    dof rx rz
    limits (-90.0 90.0)
           (-45.0 45.0)
  end
  begin
     id 29
     name rfingers
     direction -1 -4.48905e-011 -4.97056e-027   
     length 0.374489   
     axis 3.17164e-015 -90 -90   XYZ
    dof rx
    limits (0.0 90.0)
  end
  begin
     id 30
     name rthumb
     direction -0.707107 -6.34909e-011 0.707107   
     length 0.537693   
     axis -90 -45 -2.85299e-015   XYZ
    dof rx rz
    limits (-45.0 45.0)
           (-45.0 45.0)
  end
:hierarchy
  begin
    root lhipjoint rhipjoint lowerback
    lhipjoint lfemur
    lfemur ltibia
    ltibia lfoot
    lfoot ltoes
    rhipjoint rfemur
    rfemur rtibia
    rtibia rfoot
    rfoot rtoes
    lowerback upperback
    upperback thorax
    thorax lowerneck lclavicle rclavicle
    lowerneck upperneck
    upperneck head
    lclavicle lhumerus
    lhumerus lradius
    lradius lwrist
    lwrist lhand lthumb
    lhand lfingers
    rclavicle rhumerus
    rhumerus rradius
    rradius rwrist
    rwrist rhand rthumb
    rhand rfingers
  end

#!OML:ASF G:\acrobat\cartwheel_test 2\Patient 1\Session 2\acrobat4.ASF
:FULLY-SPECIFIED
:DEGREES
1113
root 9.3233 19.1519 12.0031 63.5324 -0.894847 717.67
lowerback 22.6979 0.886302 -7.03511
upperback 16.886 -0.0068302 6.88813
thorax 6.43229 -1.2138 11.7857
lowerneck -49.3061 -3.05999 -11.2953
upperneck 10.7515 2.99852 0.971159
head 9.91144 0.979248 2.46738
rclavicle -1.74931e-014 2.54444e-014
rhumerus 50.4873 12.4797 -47.1765
rradius 36.1879
rwrist 24.8008
rhand -41.8981 -1168.31
rfingers 7.12502
rthumb -14.797 117.763
lclavicle -1.74931e-014 2.54444e-014
lhumerus 39.3876 -3.34598 59.6459
lradius 31.938
lwrist -1.33271
lhand -61.0283 -176.871
lfingers 7.12502
lthumb -33.1302 -203.843
rfemur 30.5798 156.783 45.8165
rtibia 50.1083
rfoot 71.6347 -150.783
rtoes 19.5045
lfemur -75.8869 -0.145771 -21.1118
ltibia 57.2742
lfoot 175.76 -182.768
ltoes -37.7663
1114
root 9.32254 19.6774 12.1416 66.6348 -0.956659 717.198
lowerback 25.2656 1.29199 -5.76187
upperback 17.0869 0.579823 5.87254
thorax 5.18655 -0.678032 9.7346
lowerneck -49.7418 -3.43518 -10.8081
upperneck 9.97168 2.02121 1.93604
head 9.68281 0.749748 2.61083
rclavicle 3.33958e-014 3.97569e-016
rhumerus 52.1315 9.09336 -49.031
rradius 36.2407
rwrist 25.4438
rhand -41.882 -1168.12
rfingers 7.12502
rthumb -14.7815 117.574
lclavicle 3.33958e-014 3.97569e-016
lhumerus 42.2766 -3.51615 55.5291
lradius 32.9959
lwrist 0.565533
lhand -60.4008 -176.518
lfingers 7.12502
lthumb -32.5333 -203.615
rfemur 27.6204 159.736 42.6858
rtibia 53.583
rfoot 73.2236 -146.035
rtoes 14.4704
lfemur -78.3901 0.209251 -21.3877
ltibia 61.6978
lfoot 176.705 -182.232
ltoes -33.5606
1115
root 9.32215 20.1922 12.2913 69.1747 -0.890596 716.766
lowerback 28.1517 1.62754 -4.97783
upperback 17.1525 1.01354 5.2312
thorax 3.81067 -0.309497 8.44812
lowerneck -49.3716 -3.57908 -10.4627
upperneck 9.10005 1.43678 2.44178
head 9.34668 0.613952 2.6573
rclavicle -2.54444e-014 -2.0276e-014
rhumerus 53.9935 6.68129 -49.2068
rradius 36.4445
rwrist 24.8999
rhand -41.4802 -1168.31
rfingers 7.12502
rthumb -14.3944 117.796
lclavicle -2.54444e-014 -2.0276e-014
lhumerus 44.1752 -3.45187 50.1119
lradius 34.6601
lwrist 4.36699
lhand -59.8794 -176.05
lfingers 7.12502
lthumb -32.037 -203.249
rfemur 23.7374 162.039 39.8673
rtibia 58.0818
rfoot 78.1436 -141.625
rtoes 16.9043
lfemur -80.4037 0.553626 -21.5761
ltibia 67.1927
lfoot 177.518 -180.848
ltoes -35.6127
1116
root 9.43679 20.7479 12.4938 72.6169 -0.864825 716.887
lowerback 29.4186 1.50752 -4.29104
upperback 16.8881 0.962073 4.66282
thorax 2.92007 -0.203007 7.4091
lowerneck -47.8468 -3.30599 -9.78508
upperneck 7.47571 1.19819 2.20272
head 8.98919 0.53519 2.50861
rclavicle -1.43125e-014 3.85642e-014
rhumerus 55.5634 4.95956 -48.4039
rradius 36.9752
rwrist 23.4765
rhand -41.0924 -1169.48
rfingers 7.12502
rthumb -14.0207 118.982
lclavicle -1.43125e-014 3.85642e-014
lhumerus 45.6728 -2.49659 47.6207
lradius 35.496
lwrist 5.43555
lhand -59.4482 -174.954
lfingers 7.12502
lthumb -31.6264 -202.234
rfemur -80.4417 4.30129 25.341
rtibia 63.7343
rfoot 31.5398 -17.0281
rtoes 57.91
lfemur -83.0145 -0.283387 -22.1256
ltibia 72.7379
lfoot 175.781 -182.764
ltoes -30.8129
1117
root 9.44765 21.189 12.669 75.7092 -1.09281 716.924
lowerback 31.1932 1.56461 -4.15961
upperback 16.4196 0.956817 4.40535
thorax 1.52684 -0.105241 6.58258
lowerneck -46.1943 -3.10634 -9.55926
upperneck 6.50783 1.07823 2.38094
head 8.46736 0.54676 2.50775
rclavicle -1.11319e-014 8.74653e-015
rhumerus 56.6328 3.74803 -46.88
rradius 37.9015
rwrist 21.2865
rhand -40.9427 -1348.87
rfingers 7.12502
rthumb -13.8764 120.645
lclavicle -1.11319e-014 8.74653e-015
lhumerus 46.6682 -1.47015 45.732
lradius 36.3721
lwrist 6.02113
lhand -59.0099 -173.077
lfingers 7.12502
lthumb -31.2088 -200.438
rfemur -83.1212 3.90107 25.6435
rtibia 69.8896
rfoot 28.8533 -14.7984
rtoes 54.5788
lfemur -85.6115 -0.362587 -22.7228
ltibia 79.0019
lfoot 177.906 -180.09
ltoes -28.3595
1118
root 9.45706 21.5975 12.8444 79.0655 -1.13722 717.023
lowerback 32.0608 1.48767 -3.88959
upperback 15.8476 0.899127 4.01189
thorax 0.603 -0.0541854 6.01702
lowerneck -44.0543 -2.98965 -9.68426
upperneck 5.22868 0.955551 2.84613
head 7.78214 0.589332 2.65957
rclavicle -7.95139e-016 3.18055e-014
rhumerus 57.2802 2.56445 -45.1899
rradius 39.22
rwrist 18.8982
rhand -40.7191 -1347.75
rfingers 7.12502
rthumb -13.6609 121.785
lclavicle -7.95139e-016 3.18055e-014
lhumerus 47.3045 -0.445936 43.5182
lradius 37.4975
lwrist 7.22251
lhand -58.6425 -171.651
lfingers 7.12502
lthumb -30.8586 -199.08
rfemur -86.2493 3.50351 25.9933
rtibia 76.6119
rfoot 26.368 -14.1646
rtoes 50.951
lfemur -88.3906 -0.527151 -23.1709
ltibia 85.3277
lfoot 179.729 -178.83
ltoes -30.1953
1119
root 9.44324 22.0179 13.0595 81.4915 -1.09169 716.811
lowerback 33.7541 1.72388 -3.95806
upperback 15.3523 1.09979 3.81763
thorax -0.565759 0.0824257 5.76202
lowerneck -41.4129 -2.77026 -9.67348
upperneck 3.50285 0.895322 2.99218
head 6.88963 0.624659 2.67345
rclavicle 6.36111e-015 -1.27222e-014
rhumerus 57.8054 1.30869 -42.7963
rradius 40.6584
rwrist 15.8614
rhand -40.5718 -1346.32
rfingers 7.12502
rthumb -13.5189 123.224
lclavicle 6.36111e-015 -1.27222e-014
lhumerus 47.7591 0.474403 41.4043
lradius 38.5418
lwrist 8.58158
lhand -58.67 -172.128
lfingers 7.12502
lthumb -30.8848 -199.551
rfemur -87.8279 3.49574 26.4913
rtibia 83.179
rfoot 22.9058 -14.7135
rtoes 47.2202
lfemur -89.4724 0.0982799 -23.6059
ltibia 91.4021
lfoot 177.809 -180.819
ltoes -36.4878
